<svg xmlns="http://www.w3.org/2000/svg" xmlns:xlink="http://www.w3.org/1999/xlink" id="Layer_2" width="50" height="50" x="0" y="0" enable-background="new 0 0 50 50" version="1.1" viewBox="0 0 18 18" xml:space="preserve"><defs><linearGradient id="a13e5b14-541b-41c4-969c-51486fce6d08" x1="8.94" x2="8.91" y1="18.11" y2="13.59" gradientUnits="userSpaceOnUse"><stop offset="0" stop-color="#32bedd"/><stop offset=".36" stop-color="#34c1e0"/><stop offset=".63" stop-color="#3ccbe8"/><stop offset=".88" stop-color="#48dbf6"/><stop offset="1" stop-color="#50e6ff"/></linearGradient></defs><g><g><polygon fill="#773adc" points="15.43 3.76 15.43 11.24 9 15 9 7.51 15.43 3.76"/><polygon fill="#b796f9" points="15.43 3.76 9 7.52 2.57 3.76 9 0 15.43 3.76"/><polygon fill="#a67af4" points="9 7.52 9 15 2.57 11.24 2.57 3.76 9 7.52"/></g><path fill="#fff" d="M11.89,9,9.06,6.12a.15.15,0,0,0-.21,0L6,9a.14.14,0,0,0,.11.24H7.78a.15.15,0,0,1,.15.15V12a.15.15,0,0,0,.14.15H9.83A.15.15,0,0,0,10,12V9.35a.15.15,0,0,1,.14-.15h1.67A.14.14,0,0,0,11.89,9Z"/><g><rect width="7.02" height="6.19" x="5.41" y="11.81" fill="url(#a13e5b14-541b-41c4-969c-51486fce6d08)" rx=".37"/><path fill="#fff" d="M8.1,16.3,6.69,14.89l1.38-1.38a.1.1,0,0,0,0-.14l-.22-.22a.12.12,0,0,0-.14,0l-1.6,1.6a.22.22,0,0,0,0,.22.18.18,0,0,0,0,.07l1.62,1.62a.1.1,0,0,0,.14,0l.22-.22A.1.1,0,0,0,8.1,16.3Z"/><path fill="#fff" d="M12,14.75l-1.59-1.6a.12.12,0,0,0-.14,0l-.22.22a.1.1,0,0,0,0,.14l1.37,1.38L10,16.3a.1.1,0,0,0,0,.14l.22.22a.1.1,0,0,0,.14,0L12,15A.16.16,0,0,0,12,15,.2.2,0,0,0,12,14.75Z"/></g></g></svg>